<svg width="21" height="18" viewBox="0 0 21 18" fill="none" xmlns="http://www.w3.org/2000/svg">
<path d="M15.5645 6.45528L17.0524 5.06104C18.9517 6.08777 20.2162 7.50665 20.2162 9.07896C20.2162 12.2179 15.2046 14.7554 10.1081 14.762C9.07098 14.7619 8.0367 14.6604 7.0221 14.4589L8.78799 12.8052C9.21859 12.8468 9.65931 12.8686 10.1051 12.8677H10.1071C9.68761 12.8677 9.28329 12.808 8.90322 12.6972L10.9056 10.8199C11.3807 10.6285 11.7618 10.2715 11.967 9.82628L13.9684 7.94992C14.1568 8.5155 14.2011 9.11461 14.0976 9.69912C13.9941 10.2836 13.7457 10.8372 13.3725 11.3155C12.9992 11.7938 12.5115 12.1833 11.9484 12.4529C11.3853 12.7225 10.7626 12.8645 10.1303 12.8677C14.4212 12.8535 18.1946 10.799 18.1946 9.07896C18.1946 8.18577 17.1615 7.19787 15.5645 6.45528ZM6.1619 9.90774C6.02943 9.35403 6.03139 8.7795 6.16763 8.2266C6.30386 7.67369 6.57091 7.15652 6.94903 6.71328C7.32715 6.27004 7.8067 5.91205 8.35226 5.66575C8.89782 5.41944 9.49545 5.29112 10.101 5.29025C5.83743 5.27604 2.02162 7.3532 2.02162 9.07896C2.02162 9.92763 2.93539 10.8568 4.37378 11.5833L2.90002 12.9624C1.14626 11.947 0 10.5802 0 9.07896C0 5.94002 5.03788 3.3798 10.1081 3.3959C11.032 3.39874 11.9549 3.48493 12.8464 3.64406L11.0502 5.32624C10.757 5.30541 10.4599 5.29309 10.1607 5.29025C10.4457 5.29404 10.7237 5.3253 10.9926 5.38118L6.16089 9.90774H6.1619ZM19.2984 0.276847C19.4879 0.454469 19.5944 0.695344 19.5944 0.946501C19.5944 1.19766 19.4879 1.43853 19.2984 1.61615L2.14494 17.6897C2.05176 17.7803 1.94028 17.8525 1.817 17.9022C1.69371 17.9519 1.56109 17.9781 1.42688 17.9793C1.29267 17.9805 1.15955 17.9566 1.03529 17.9091C0.911029 17.8615 0.798118 17.7913 0.703144 17.7024C0.60817 17.6136 0.533035 17.5079 0.482123 17.3915C0.431211 17.2751 0.405541 17.1504 0.406611 17.0246C0.407682 16.8989 0.435471 16.7746 0.488357 16.659C0.541244 16.5434 0.618169 16.4388 0.714643 16.3514L17.8681 0.277794C17.962 0.189729 18.0735 0.119866 18.1962 0.0722004C18.3189 0.0245344 18.4504 0 18.5833 0C18.7161 0 18.8476 0.0245344 18.9703 0.0722004C19.093 0.119866 19.2045 0.189729 19.2984 0.277794V0.276847Z" fill="#949393"/>
</svg>
